<svg width="960" height="960" viewBox="0 0 960 960" fill="none" xmlns="http://www.w3.org/2000/svg">
<path d="M25 612.6C25 616.466 28.134 619.6 32 619.6H355.1V778C355.1 781.866 358.234 785 362.1 785H526.8C530.666 785 533.8 781.866 533.8 778V479.1C533.8 475.234 530.666 472.1 526.8 472.1H214.174L531.755 153.845C533.754 151.842 534.35 148.832 533.266 146.218C532.181 143.604 529.63 141.9 526.8 141.9H362.1C360.243 141.9 358.462 142.638 357.15 143.951L27.0495 474.151C25.7372 475.464 25 477.244 25 479.1V612.6Z" fill="white" stroke="black" stroke-width="14" stroke-linejoin="round"/>
<path d="M590.9 314.2C590.9 317.034 592.608 319.587 595.227 320.67C597.845 321.752 600.857 321.149 602.858 319.143L767.658 153.843C769.655 151.839 770.25 148.83 769.166 146.217C768.081 143.604 765.53 141.9 762.7 141.9H597.9C594.034 141.9 590.9 145.034 590.9 148.9V314.2Z" fill="white" stroke="black" stroke-width="14" stroke-linejoin="round"/>
<path d="M934.999 479.1C934.999 476.27 933.296 473.719 930.683 472.634C928.07 471.55 925.061 472.145 923.057 474.142L757.757 638.942C755.751 640.943 755.148 643.955 756.23 646.573C757.312 649.192 759.866 650.9 762.699 650.9H927.999C931.865 650.9 934.999 647.766 934.999 643.9V479.1Z" fill="white" stroke="black" stroke-width="14" stroke-linejoin="round"/>
<path d="M769.7 643.9V482.005L932.944 319.156C934.261 317.843 935 316.06 935 314.2V148.9C935 145.034 931.866 141.9 928 141.9H762.7C758.834 141.9 755.7 145.034 755.7 148.9V311.302L592.949 474.152C591.637 475.465 590.9 477.245 590.9 479.1V643.9C590.9 647.766 594.034 650.9 597.9 650.9H762.7C766.566 650.9 769.7 647.766 769.7 643.9Z" fill="white" stroke="black" stroke-width="14" stroke-linejoin="round"/>
</svg>
